<mxfile host="app.diagrams.net" modified="2023-04-05T01:52:03.059Z" agent="5.0 (Windows NT 10.0; Win64; x64) AppleWebKit/537.36 (KHTML, like Gecko) Chrome/111.0.0.0 Safari/537.36" etag="JiFYmRDSRWm1rFuTJ5gH" version="20.8.21" type="github">
  <diagram name="Page-1" id="zQqQiGpM7OhdZJrF4J4z">
    <mxGraphModel dx="555" dy="718" grid="1" gridSize="10" guides="1" tooltips="1" connect="1" arrows="1" fold="1" page="1" pageScale="1" pageWidth="850" pageHeight="1100" math="0" shadow="0">
      <root>
        <mxCell id="0" />
        <mxCell id="1" parent="0" />
        <mxCell id="sVoT1eoxVnCFGdgfDP2G-1" value="Start" style="html=1;dashed=0;whitespace=wrap;shape=mxgraph.dfd.start" vertex="1" parent="1">
          <mxGeometry x="120" y="180" width="80" height="30" as="geometry" />
        </mxCell>
        <mxCell id="sVoT1eoxVnCFGdgfDP2G-2" value="End" style="html=1;dashed=0;whitespace=wrap;shape=mxgraph.dfd.start" vertex="1" parent="1">
          <mxGeometry x="390" y="610" width="80" height="30" as="geometry" />
        </mxCell>
        <mxCell id="sVoT1eoxVnCFGdgfDP2G-3" value="rled, OUTPUT&lt;br&gt;yled, OUTPUT&lt;br&gt;gled, OUTPUT" style="shape=parallelogram;perimeter=parallelogramPerimeter;whiteSpace=wrap;html=1;fixedSize=1;" vertex="1" parent="1">
          <mxGeometry x="100" y="321.99" width="120" height="45" as="geometry" />
        </mxCell>
        <mxCell id="sVoT1eoxVnCFGdgfDP2G-4" value="define rled 5&lt;br&gt;define yled 18&lt;br&gt;define gled 19" style="rounded=1;whiteSpace=wrap;html=1;absoluteArcSize=1;arcSize=14;strokeWidth=1;" vertex="1" parent="1">
          <mxGeometry x="110" y="241.99" width="100" height="50" as="geometry" />
        </mxCell>
        <mxCell id="sVoT1eoxVnCFGdgfDP2G-5" value="digitalWrite (rled, HIGH)" style="rounded=1;whiteSpace=wrap;html=1;absoluteArcSize=1;arcSize=14;strokeWidth=1;" vertex="1" parent="1">
          <mxGeometry x="110" y="401.99" width="100" height="50" as="geometry" />
        </mxCell>
        <mxCell id="sVoT1eoxVnCFGdgfDP2G-6" value="delay 800" style="shape=delay;whiteSpace=wrap;html=1;strokeWidth=1;" vertex="1" parent="1">
          <mxGeometry x="120" y="481.99" width="80" height="40" as="geometry" />
        </mxCell>
        <mxCell id="sVoT1eoxVnCFGdgfDP2G-7" value="digitalWrite (rled, LOW)" style="rounded=1;whiteSpace=wrap;html=1;absoluteArcSize=1;arcSize=14;strokeWidth=1;" vertex="1" parent="1">
          <mxGeometry x="110" y="551.99" width="100" height="50" as="geometry" />
        </mxCell>
        <mxCell id="sVoT1eoxVnCFGdgfDP2G-8" value="delay 800" style="shape=delay;whiteSpace=wrap;html=1;strokeWidth=1;" vertex="1" parent="1">
          <mxGeometry x="120" y="621.99" width="80" height="40" as="geometry" />
        </mxCell>
        <mxCell id="sVoT1eoxVnCFGdgfDP2G-9" value="" style="endArrow=classic;html=1;rounded=0;entryX=0.5;entryY=0;entryDx=0;entryDy=0;exitX=0.5;exitY=0.5;exitDx=0;exitDy=15;exitPerimeter=0;" edge="1" parent="1" source="sVoT1eoxVnCFGdgfDP2G-1" target="sVoT1eoxVnCFGdgfDP2G-4">
          <mxGeometry width="50" height="50" relative="1" as="geometry">
            <mxPoint x="160" y="170" as="sourcePoint" />
            <mxPoint x="450" y="361.99" as="targetPoint" />
          </mxGeometry>
        </mxCell>
        <mxCell id="sVoT1eoxVnCFGdgfDP2G-10" value="" style="endArrow=classic;html=1;rounded=0;exitX=0.5;exitY=1;exitDx=0;exitDy=0;entryX=0.5;entryY=0;entryDx=0;entryDy=0;" edge="1" parent="1" source="sVoT1eoxVnCFGdgfDP2G-4" target="sVoT1eoxVnCFGdgfDP2G-3">
          <mxGeometry width="50" height="50" relative="1" as="geometry">
            <mxPoint x="170" y="221.99" as="sourcePoint" />
            <mxPoint x="170" y="251.99" as="targetPoint" />
          </mxGeometry>
        </mxCell>
        <mxCell id="sVoT1eoxVnCFGdgfDP2G-11" value="" style="endArrow=classic;html=1;rounded=0;exitX=0.5;exitY=1;exitDx=0;exitDy=0;entryX=0.5;entryY=0;entryDx=0;entryDy=0;" edge="1" parent="1" source="sVoT1eoxVnCFGdgfDP2G-3" target="sVoT1eoxVnCFGdgfDP2G-5">
          <mxGeometry width="50" height="50" relative="1" as="geometry">
            <mxPoint x="180" y="231.99" as="sourcePoint" />
            <mxPoint x="180" y="261.99" as="targetPoint" />
          </mxGeometry>
        </mxCell>
        <mxCell id="sVoT1eoxVnCFGdgfDP2G-12" value="" style="endArrow=classic;html=1;rounded=0;exitX=0.5;exitY=1;exitDx=0;exitDy=0;entryX=0.5;entryY=0;entryDx=0;entryDy=0;" edge="1" parent="1" source="sVoT1eoxVnCFGdgfDP2G-5" target="sVoT1eoxVnCFGdgfDP2G-6">
          <mxGeometry width="50" height="50" relative="1" as="geometry">
            <mxPoint x="190" y="241.99" as="sourcePoint" />
            <mxPoint x="190" y="271.99" as="targetPoint" />
          </mxGeometry>
        </mxCell>
        <mxCell id="sVoT1eoxVnCFGdgfDP2G-13" value="" style="endArrow=classic;html=1;rounded=0;exitX=0.5;exitY=1;exitDx=0;exitDy=0;entryX=0.5;entryY=0;entryDx=0;entryDy=0;" edge="1" parent="1" source="sVoT1eoxVnCFGdgfDP2G-6" target="sVoT1eoxVnCFGdgfDP2G-7">
          <mxGeometry width="50" height="50" relative="1" as="geometry">
            <mxPoint x="200" y="251.99" as="sourcePoint" />
            <mxPoint x="200" y="281.99" as="targetPoint" />
          </mxGeometry>
        </mxCell>
        <mxCell id="sVoT1eoxVnCFGdgfDP2G-14" value="" style="endArrow=classic;html=1;rounded=0;exitX=0.5;exitY=1;exitDx=0;exitDy=0;entryX=0.5;entryY=0;entryDx=0;entryDy=0;" edge="1" parent="1" source="sVoT1eoxVnCFGdgfDP2G-7" target="sVoT1eoxVnCFGdgfDP2G-8">
          <mxGeometry width="50" height="50" relative="1" as="geometry">
            <mxPoint x="210" y="261.99" as="sourcePoint" />
            <mxPoint x="210" y="291.99" as="targetPoint" />
          </mxGeometry>
        </mxCell>
        <mxCell id="sVoT1eoxVnCFGdgfDP2G-15" value="" style="endArrow=classic;html=1;rounded=0;exitX=0.5;exitY=1;exitDx=0;exitDy=0;entryX=0.5;entryY=0;entryDx=0;entryDy=0;" edge="1" parent="1" source="sVoT1eoxVnCFGdgfDP2G-8" target="sVoT1eoxVnCFGdgfDP2G-18">
          <mxGeometry width="50" height="50" relative="1" as="geometry">
            <mxPoint x="220" y="271.99" as="sourcePoint" />
            <mxPoint x="160" y="690" as="targetPoint" />
          </mxGeometry>
        </mxCell>
        <mxCell id="sVoT1eoxVnCFGdgfDP2G-16" value="&lt;h1&gt;ESP32 and 3 LEDs&lt;/h1&gt;&lt;p&gt;This flowchart illustrates the programming process of an ESP32 to light with order of three LEDs.&lt;/p&gt;" style="text;html=1;strokeColor=none;fillColor=none;spacing=5;spacingTop=-20;whiteSpace=wrap;overflow=hidden;rounded=0;" vertex="1" parent="1">
          <mxGeometry x="40" y="40" width="250" height="110" as="geometry" />
        </mxCell>
        <mxCell id="sVoT1eoxVnCFGdgfDP2G-18" value="digitalWrite (yled, HIGH)" style="rounded=1;whiteSpace=wrap;html=1;absoluteArcSize=1;arcSize=14;strokeWidth=1;" vertex="1" parent="1">
          <mxGeometry x="110" y="700" width="100" height="50" as="geometry" />
        </mxCell>
        <mxCell id="sVoT1eoxVnCFGdgfDP2G-19" value="delay 1200" style="shape=delay;whiteSpace=wrap;html=1;strokeWidth=1;" vertex="1" parent="1">
          <mxGeometry x="120" y="780" width="80" height="40" as="geometry" />
        </mxCell>
        <mxCell id="sVoT1eoxVnCFGdgfDP2G-20" value="digitalWrite (yled, LOW)" style="rounded=1;whiteSpace=wrap;html=1;absoluteArcSize=1;arcSize=14;strokeWidth=1;" vertex="1" parent="1">
          <mxGeometry x="110" y="850" width="100" height="50" as="geometry" />
        </mxCell>
        <mxCell id="sVoT1eoxVnCFGdgfDP2G-21" value="delay 1200" style="shape=delay;whiteSpace=wrap;html=1;strokeWidth=1;" vertex="1" parent="1">
          <mxGeometry x="120" y="930" width="80" height="40" as="geometry" />
        </mxCell>
        <mxCell id="sVoT1eoxVnCFGdgfDP2G-22" value="" style="endArrow=classic;html=1;rounded=0;exitX=0.5;exitY=1;exitDx=0;exitDy=0;entryX=0.5;entryY=0;entryDx=0;entryDy=0;" edge="1" parent="1" source="sVoT1eoxVnCFGdgfDP2G-18" target="sVoT1eoxVnCFGdgfDP2G-19">
          <mxGeometry width="50" height="50" relative="1" as="geometry">
            <mxPoint x="190" y="540" as="sourcePoint" />
            <mxPoint x="190" y="570" as="targetPoint" />
          </mxGeometry>
        </mxCell>
        <mxCell id="sVoT1eoxVnCFGdgfDP2G-23" value="" style="endArrow=classic;html=1;rounded=0;exitX=0.5;exitY=1;exitDx=0;exitDy=0;entryX=0.5;entryY=0;entryDx=0;entryDy=0;" edge="1" parent="1" source="sVoT1eoxVnCFGdgfDP2G-19" target="sVoT1eoxVnCFGdgfDP2G-20">
          <mxGeometry width="50" height="50" relative="1" as="geometry">
            <mxPoint x="200" y="550" as="sourcePoint" />
            <mxPoint x="200" y="580" as="targetPoint" />
          </mxGeometry>
        </mxCell>
        <mxCell id="sVoT1eoxVnCFGdgfDP2G-24" value="" style="endArrow=classic;html=1;rounded=0;exitX=0.5;exitY=1;exitDx=0;exitDy=0;entryX=0.5;entryY=0;entryDx=0;entryDy=0;" edge="1" parent="1" source="sVoT1eoxVnCFGdgfDP2G-20" target="sVoT1eoxVnCFGdgfDP2G-21">
          <mxGeometry width="50" height="50" relative="1" as="geometry">
            <mxPoint x="210" y="560" as="sourcePoint" />
            <mxPoint x="210" y="590" as="targetPoint" />
          </mxGeometry>
        </mxCell>
        <mxCell id="sVoT1eoxVnCFGdgfDP2G-32" value="" style="verticalLabelPosition=bottom;verticalAlign=top;html=1;shape=mxgraph.flowchart.on-page_reference;" vertex="1" parent="1">
          <mxGeometry x="145" y="1000" width="30" height="30" as="geometry" />
        </mxCell>
        <mxCell id="sVoT1eoxVnCFGdgfDP2G-33" value="" style="endArrow=classic;html=1;rounded=0;exitX=0.5;exitY=1;exitDx=0;exitDy=0;entryX=0.5;entryY=0;entryDx=0;entryDy=0;entryPerimeter=0;" edge="1" parent="1" source="sVoT1eoxVnCFGdgfDP2G-21" target="sVoT1eoxVnCFGdgfDP2G-32">
          <mxGeometry width="50" height="50" relative="1" as="geometry">
            <mxPoint x="170" y="830" as="sourcePoint" />
            <mxPoint x="170" y="860" as="targetPoint" />
          </mxGeometry>
        </mxCell>
        <mxCell id="sVoT1eoxVnCFGdgfDP2G-34" value="" style="verticalLabelPosition=bottom;verticalAlign=top;html=1;shape=mxgraph.flowchart.on-page_reference;" vertex="1" parent="1">
          <mxGeometry x="415" y="240" width="30" height="30" as="geometry" />
        </mxCell>
        <mxCell id="sVoT1eoxVnCFGdgfDP2G-35" value="" style="endArrow=classic;html=1;rounded=0;exitX=0.5;exitY=1;exitDx=0;exitDy=0;exitPerimeter=0;entryX=0.5;entryY=0;entryDx=0;entryDy=0;" edge="1" parent="1" source="sVoT1eoxVnCFGdgfDP2G-34" target="sVoT1eoxVnCFGdgfDP2G-36">
          <mxGeometry width="50" height="50" relative="1" as="geometry">
            <mxPoint x="170" y="377" as="sourcePoint" />
            <mxPoint x="290" y="300" as="targetPoint" />
          </mxGeometry>
        </mxCell>
        <mxCell id="sVoT1eoxVnCFGdgfDP2G-36" value="digitalWrite (gled, HIGH)" style="rounded=1;whiteSpace=wrap;html=1;absoluteArcSize=1;arcSize=14;strokeWidth=1;" vertex="1" parent="1">
          <mxGeometry x="380" y="296.99" width="100" height="50" as="geometry" />
        </mxCell>
        <mxCell id="sVoT1eoxVnCFGdgfDP2G-37" value="delay 1600" style="shape=delay;whiteSpace=wrap;html=1;strokeWidth=1;" vertex="1" parent="1">
          <mxGeometry x="390" y="376.99" width="80" height="40" as="geometry" />
        </mxCell>
        <mxCell id="sVoT1eoxVnCFGdgfDP2G-38" value="digitalWrite (gled, LOW)" style="rounded=1;whiteSpace=wrap;html=1;absoluteArcSize=1;arcSize=14;strokeWidth=1;" vertex="1" parent="1">
          <mxGeometry x="380" y="446.99" width="100" height="50" as="geometry" />
        </mxCell>
        <mxCell id="sVoT1eoxVnCFGdgfDP2G-43" style="edgeStyle=orthogonalEdgeStyle;rounded=0;orthogonalLoop=1;jettySize=auto;html=1;exitX=0.5;exitY=1;exitDx=0;exitDy=0;entryX=0.5;entryY=0.5;entryDx=0;entryDy=-15;entryPerimeter=0;" edge="1" parent="1" source="sVoT1eoxVnCFGdgfDP2G-39" target="sVoT1eoxVnCFGdgfDP2G-2">
          <mxGeometry relative="1" as="geometry" />
        </mxCell>
        <mxCell id="sVoT1eoxVnCFGdgfDP2G-39" value="delay 1600" style="shape=delay;whiteSpace=wrap;html=1;strokeWidth=1;" vertex="1" parent="1">
          <mxGeometry x="390" y="530" width="80" height="40" as="geometry" />
        </mxCell>
        <mxCell id="sVoT1eoxVnCFGdgfDP2G-40" value="" style="endArrow=classic;html=1;rounded=0;exitX=0.5;exitY=1;exitDx=0;exitDy=0;entryX=0.5;entryY=0;entryDx=0;entryDy=0;" edge="1" parent="1" source="sVoT1eoxVnCFGdgfDP2G-36" target="sVoT1eoxVnCFGdgfDP2G-37">
          <mxGeometry width="50" height="50" relative="1" as="geometry">
            <mxPoint x="460" y="136.99" as="sourcePoint" />
            <mxPoint x="460" y="166.99" as="targetPoint" />
          </mxGeometry>
        </mxCell>
        <mxCell id="sVoT1eoxVnCFGdgfDP2G-41" value="" style="endArrow=classic;html=1;rounded=0;exitX=0.5;exitY=1;exitDx=0;exitDy=0;entryX=0.5;entryY=0;entryDx=0;entryDy=0;" edge="1" parent="1" source="sVoT1eoxVnCFGdgfDP2G-37" target="sVoT1eoxVnCFGdgfDP2G-38">
          <mxGeometry width="50" height="50" relative="1" as="geometry">
            <mxPoint x="470" y="146.99" as="sourcePoint" />
            <mxPoint x="470" y="176.99" as="targetPoint" />
          </mxGeometry>
        </mxCell>
        <mxCell id="sVoT1eoxVnCFGdgfDP2G-42" value="" style="endArrow=classic;html=1;rounded=0;exitX=0.5;exitY=1;exitDx=0;exitDy=0;entryX=0.5;entryY=0;entryDx=0;entryDy=0;" edge="1" parent="1" source="sVoT1eoxVnCFGdgfDP2G-38" target="sVoT1eoxVnCFGdgfDP2G-39">
          <mxGeometry width="50" height="50" relative="1" as="geometry">
            <mxPoint x="480" y="156.99" as="sourcePoint" />
            <mxPoint x="480" y="186.99" as="targetPoint" />
          </mxGeometry>
        </mxCell>
      </root>
    </mxGraphModel>
  </diagram>
</mxfile>
